<svg width="48" height="49" viewBox="0 0 48 49" fill="none" xmlns="http://www.w3.org/2000/svg">
<path d="M40 20.5V16.5C40 15.9696 39.7893 15.4609 39.4142 15.0858C39.0391 14.7107 38.5304 14.5 38 14.5H36V16.5C36 17.0304 35.7893 17.5391 35.4142 17.9142C35.0391 18.2893 34.5304 18.5 34 18.5C33.4696 18.5 32.9609 18.2893 32.5858 17.9142C32.2107 17.5391 32 17.0304 32 16.5V14.5H16V16.5C16 17.0304 15.7893 17.5391 15.4142 17.9142C15.0391 18.2893 14.5304 18.5 14 18.5C13.4696 18.5 12.9609 18.2893 12.5858 17.9142C12.2107 17.5391 12 17.0304 12 16.5V14.5H10C9.46957 14.5 8.96086 14.7107 8.58579 15.0858C8.21071 15.4609 8 15.9696 8 16.5V20.5H40ZM40 24.5H8V36.5C8 37.0304 8.21071 37.5391 8.58579 37.9142C8.96086 38.2893 9.46957 38.5 10 38.5H38C38.5304 38.5 39.0391 38.2893 39.4142 37.9142C39.7893 37.5391 40 37.0304 40 36.5V24.5ZM36 10.5H38C39.5913 10.5 41.1174 11.1321 42.2426 12.2574C43.3679 13.3826 44 14.9087 44 16.5V36.5C44 38.0913 43.3679 39.6174 42.2426 40.7426C41.1174 41.8679 39.5913 42.5 38 42.5H10C8.4087 42.5 6.88258 41.8679 5.75736 40.7426C4.63214 39.6174 4 38.0913 4 36.5V16.5C4 14.9087 4.63214 13.3826 5.75736 12.2574C6.88258 11.1321 8.4087 10.5 10 10.5H12V8.5C12 7.96957 12.2107 7.46086 12.5858 7.08579C12.9609 6.71071 13.4696 6.5 14 6.5C14.5304 6.5 15.0391 6.71071 15.4142 7.08579C15.7893 7.46086 16 7.96957 16 8.5V10.5H32V8.5C32 7.96957 32.2107 7.46086 32.5858 7.08579C32.9609 6.71071 33.4696 6.5 34 6.5C34.5304 6.5 35.0391 6.71071 35.4142 7.08579C35.7893 7.46086 36 7.96957 36 8.5V10.5Z" fill="#C1C7CD"/>
</svg>
