<svg width="49" height="48" viewBox="0 0 49 48" fill="none" xmlns="http://www.w3.org/2000/svg">
<path d="M24.6667 40C28.9102 40 32.9799 38.3143 35.9805 35.3137C38.981 32.3131 40.6667 28.2435 40.6667 24C40.6667 19.7565 38.981 15.6869 35.9805 12.6863C32.9799 9.68571 28.9102 8 24.6667 8C20.4233 8 16.3536 9.68571 13.353 12.6863C10.3525 15.6869 8.66675 19.7565 8.66675 24C8.66675 28.2435 10.3525 32.3131 13.353 35.3137C16.3536 38.3143 20.4233 40 24.6667 40ZM24.6667 44C13.6207 44 4.66675 35.046 4.66675 24C4.66675 12.954 13.6207 4 24.6667 4C35.7127 4 44.6667 12.954 44.6667 24C44.6667 35.046 35.7127 44 24.6667 44ZM22.6667 6H26.6667V26H22.6667V6ZM22.6667 22H42.6667V26H22.6667V22Z" fill="#161E21"/>
</svg>
